# xmcd
#
# Track frame offsets:
#	150
#	19587
#	32650
#	49296
#	64763
#	70160
#	84584
#	97771
#	113817
#	130908
#	151330
#	168679
#	183737
#
# Disc length: 3203 seconds
#
# Revision: 0
# Processed by: cddbd v1.4PL0 Copyright (c) Steve Scherf et al.
# Submitted via: dBpowerAMP V4.0
#
DISCID=aa0c810d
DTITLE=Amoral Minority - Juno Thief
DYEAR=2003
DGENRE=Undefined
TTITLE0=Give the light/The long ride
TTITLE1=No L.A. nights
TTITLE2=Cinqo de Mayo
TTITLE3=Left coast city works dept.
TTITLE4=Requiem
TTITLE5=Be ung gooey!
TTITLE6=Gritty Ditty
TTITLE7=Pioneer town pleasure
TTITLE8=Listen Lucille
TTITLE9=It will always be
TTITLE10="Ladies and gentleman"
TTITLE11=Busker's banquet blues
TTITLE12=Find myself
EXTD=Copyright 2003 SOCAN\nWritten, composed, produced by Lee Billwiller and Continuous
EXTT0=
EXTT1=
EXTT2=
EXTT3=
EXTT4=
EXTT5=
EXTT6=
EXTT7=
EXTT8=
EXTT9=
EXTT10=
EXTT11=
EXTT12=
PLAYORDER=
